<?xml version="1.0" encoding="iso-8859-1"?>
<!-- Uploaded to: SVG Repo, www.svgrepo.com, Generator: SVG Repo Mixer Tools -->
<svg height="800px" width="800px" version="1.1" id="Layer_1" xmlns="http://www.w3.org/2000/svg" xmlns:xlink="http://www.w3.org/1999/xlink" 
	 viewBox="0 0 512 512" xml:space="preserve">
<circle style="fill:#61ACD2;" cx="256" cy="256" r="243.81"/>
<path style="fill:#EFEFEF;" d="M256,451.048c-107.549,0-195.048-87.498-195.048-195.048S148.451,60.952,256,60.952
	S451.048,148.451,451.048,256S363.549,451.048,256,451.048z"/>
<circle style="fill:#61ACD2;" cx="245.029" cy="373.638" r="24.381"/>
<path d="M256,0C114.842,0,0,114.842,0,256s114.842,256,256,256s256-114.842,256-256S397.158,0,256,0z M256,487.619
	C128.284,487.619,24.381,383.716,24.381,256S128.284,24.381,256,24.381S487.619,128.284,487.619,256S383.716,487.619,256,487.619z"
	/>
<path d="M256,48.762C141.729,48.762,48.762,141.729,48.762,256S141.729,463.238,256,463.238S463.238,370.271,463.238,256
	S370.271,48.762,256,48.762z M256,438.857c-100.827,0-182.857-82.03-182.857-182.857S155.173,73.143,256,73.143
	S438.857,155.173,438.857,256S356.827,438.857,256,438.857z"/>
<path d="M279.162,112.152h-46.324c-25.879,0-47.543,20.445-47.543,46.324v22.552c0,6.733,5.458,12.19,12.19,12.19
	c6.733,0,12.19-5.458,12.19-12.19v-22.552c0-12.436,10.726-21.943,23.162-21.943h46.324c12.435,0,21.943,9.507,21.943,21.943v37.79
	c0,12.436-10.117,22.552-22.552,22.552c-25.879,0-46.933,21.054-46.933,46.933v34.743c0,6.733,5.458,12.19,12.19,12.19
	c6.733,0,12.19-5.458,12.19-12.19v-34.743c0-12.436,10.117-22.552,22.552-22.552c25.879,0,46.933-21.054,46.933-46.933v-37.79
	C325.486,132.597,305.041,112.152,279.162,112.152z"/>
<path d="M245.029,337.067c-20.165,0-36.571,16.406-36.571,36.571c0,20.165,16.406,36.571,36.571,36.571s36.571-16.406,36.571-36.571
	C281.6,353.473,265.194,337.067,245.029,337.067z M245.029,385.829c-6.722,0-12.19-5.469-12.19-12.19
	c0-6.722,5.469-12.19,12.19-12.19s12.19,5.469,12.19,12.19C257.219,380.36,251.75,385.829,245.029,385.829z"/>
</svg>